<svg width="300" height="580" viewBox="0 0 300 580" fill="none" xmlns="http://www.w3.org/2000/svg">
<path fill-rule="evenodd" clip-rule="evenodd" d="M300 0H10C10 0 42 228 26 324C15.6227 386.264 12.0405 433.395 8.0342 486.107C5.86346 514.668 3.56818 544.867 0 580H300V0ZM36 19C36 13.4772 40.4772 9 46 9H60C65.5229 9 70 13.4772 70 19V59C70 64.5228 65.5229 69 60 69H46C40.4772 69 36 64.5229 36 59V19ZM36 520C36 514.477 40.4772 510 46 510H60C65.5229 510 70 514.477 70 520V560C70 565.523 65.5229 570 60 570H46C40.4772 570 36 565.523 36 560V520ZM135 520C135 514.477 139.477 510 145 510H159C164.523 510 169 514.477 169 520V560C169 565.523 164.523 570 159 570H145C139.477 570 135 565.523 135 560V520ZM244 510C238.477 510 234 514.477 234 520V560C234 565.523 238.477 570 244 570H258C263.523 570 268 565.523 268 560V520C268 514.477 263.523 510 258 510H244ZM145 9C139.477 9 135 13.4772 135 19V59C135 64.5229 139.477 69 145 69H159C164.523 69 169 64.5228 169 59V19C169 13.4772 164.523 9 159 9H145ZM234 19C234 13.4772 238.477 9 244 9H258C263.523 9 268 13.4772 268 19V59C268 64.5228 263.523 69 258 69H244C238.477 69 234 64.5229 234 59V19Z" fill="#0E110C"/>
</svg>
