<svg width="300" height="580" viewBox="0 0 300 580" fill="none" xmlns="http://www.w3.org/2000/svg">
<path fill-rule="evenodd" clip-rule="evenodd" d="M272 0H0V580H300C300 580 272 534 250 442C239.426 397.783 233.935 384.058 233.525 370.182C233.082 355.186 238.574 340.016 250 286C272 182 272 0 272 0ZM33.871 19C33.871 13.4772 38.3481 9 43.871 9H56.7742C62.297 9 66.7742 13.4772 66.7742 19V59C66.7742 64.5228 62.297 69 56.7742 69H43.871C38.3481 69 33.871 64.5229 33.871 59V19ZM33.871 520C33.871 514.477 38.3481 510 43.871 510H56.7742C62.297 510 66.7742 514.477 66.7742 520V560C66.7742 565.523 62.297 570 56.7742 570H43.871C38.3481 570 33.871 565.523 33.871 560V520ZM129.677 520C129.677 514.477 134.154 510 139.677 510H152.581C158.103 510 162.581 514.477 162.581 520V560C162.581 565.523 158.103 570 152.581 570H139.677C134.154 570 129.677 565.523 129.677 560V520ZM235.484 510C229.961 510 225.484 514.477 225.484 520V560C225.484 565.523 229.961 570 235.484 570H248.387C253.91 570 258.387 565.523 258.387 560V520C258.387 514.477 253.91 510 248.387 510H235.484ZM139.677 9C134.154 9 129.677 13.4772 129.677 19V59C129.677 64.5229 134.154 69 139.677 69H152.581C158.103 69 162.581 64.5228 162.581 59V19C162.581 13.4772 158.103 9 152.581 9H139.677ZM225.484 19C225.484 13.4772 229.961 9 235.484 9H248.387C253.91 9 258.387 13.4772 258.387 19V59C258.387 64.5228 253.91 69 248.387 69H235.484C229.961 69 225.484 64.5229 225.484 59V19Z" fill="#0E110C"/>
</svg>
