<svg width="600" height="580" viewBox="0 0 600 580" fill="none" xmlns="http://www.w3.org/2000/svg">
<path fill-rule="evenodd" clip-rule="evenodd" d="M600 0H0V580H600V0ZM45 9C39.4772 9 35 13.4772 35 19V59C35 64.5229 39.4772 69 45 69H59C64.5229 69 69 64.5228 69 59V19C69 13.4772 64.5229 9 59 9H45ZM35 520C35 514.477 39.4772 510 45 510H59C64.5229 510 69 514.477 69 520V560C69 565.523 64.5229 570 59 570H45C39.4772 570 35 565.523 35 560V520ZM134 520C134 514.477 138.477 510 144 510H158C163.523 510 168 514.477 168 520V560C168 565.523 163.523 570 158 570H144C138.477 570 134 565.523 134 560V520ZM243 510C237.477 510 233 514.477 233 520V560C233 565.523 237.477 570 243 570H257C262.523 570 267 565.523 267 560V520C267 514.477 262.523 510 257 510H243ZM332 520C332 514.477 336.477 510 342 510H356C361.523 510 366 514.477 366 520V560C366 565.523 361.523 570 356 570H342C336.477 570 332 565.523 332 560V520ZM441 510C435.477 510 431 514.477 431 520V560C431 565.523 435.477 570 441 570H455C460.523 570 465 565.523 465 560V520C465 514.477 460.523 510 455 510H441ZM530 520C530 514.477 534.477 510 540 510H554C559.523 510 564 514.477 564 520V560C564 565.523 559.523 570 554 570H540C534.477 570 530 565.523 530 560V520ZM134 19C134 13.4772 138.477 9 144 9H158C163.523 9 168 13.4772 168 19V59C168 64.5228 163.523 69 158 69H144C138.477 69 134 64.5229 134 59V19ZM243 9C237.477 9 233 13.4772 233 19V59C233 64.5229 237.477 69 243 69H257C262.523 69 267 64.5228 267 59V19C267 13.4772 262.523 9 257 9H243ZM332 19C332 13.4772 336.477 9 342 9H356C361.523 9 366 13.4772 366 19V59C366 64.5228 361.523 69 356 69H342C336.477 69 332 64.5229 332 59V19ZM441 9C435.477 9 431 13.4772 431 19V59C431 64.5229 435.477 69 441 69H455C460.523 69 465 64.5228 465 59V19C465 13.4772 460.523 9 455 9H441ZM530 19C530 13.4772 534.477 9 540 9H554C559.523 9 564 13.4772 564 19V59C564 64.5228 559.523 69 554 69H540C534.477 69 530 64.5229 530 59V19Z" fill="#0E110C"/>
</svg>
